<?xml version="1.0" encoding="UTF-8" standalone="no"?>
<!-- Created with Inkscape (http://www.inkscape.org/) -->

<svg
   width="100mm"
   height="100mm"
   viewBox="0 0 100 100"
   version="1.1"
   id="svg1"
   inkscape:version="1.3.2 (091e20e, 2023-11-25, custom)"
   sodipodi:docname="logo.svg"
   xmlns:inkscape="http://www.inkscape.org/namespaces/inkscape"
   xmlns:sodipodi="http://sodipodi.sourceforge.net/DTD/sodipodi-0.dtd"
   xmlns:xlink="http://www.w3.org/1999/xlink"
   xmlns="http://www.w3.org/2000/svg"
   xmlns:svg="http://www.w3.org/2000/svg">
  <sodipodi:namedview
     id="namedview1"
     pagecolor="#505050"
     bordercolor="#ffffff"
     borderopacity="1"
     inkscape:showpageshadow="0"
     inkscape:pageopacity="0"
     inkscape:pagecheckerboard="1"
     inkscape:deskcolor="#505050"
     inkscape:document-units="mm"
     inkscape:zoom="2.5234923"
     inkscape:cx="68.357649"
     inkscape:cy="146.42407"
     inkscape:window-width="3840"
     inkscape:window-height="2276"
     inkscape:window-x="-12"
     inkscape:window-y="-12"
     inkscape:window-maximized="1"
     inkscape:current-layer="layer1" />
  <defs
     id="defs1">
    <linearGradient
       id="linearGradient5"
       inkscape:collect="always">
      <stop
         style="stop-color:#ff9419;stop-opacity:1;"
         offset="0"
         id="stop6" />
      <stop
         style="stop-color:#ff021d;stop-opacity:1;"
         offset="0.43000001"
         id="stop8" />
      <stop
         style="stop-color:#e600ff;stop-opacity:1;"
         offset="0.99000001"
         id="stop7" />
    </linearGradient>
    <linearGradient
       inkscape:collect="always"
       xlink:href="#linearGradient5"
       id="linearGradient7"
       x1="0"
       y1="50"
       x2="100"
       y2="50"
       gradientUnits="userSpaceOnUse"
       gradientTransform="translate(-50,20.710678)" />
    <pattern
       id="a"
       xlink:href="#b"
       patternTransform="matrix(1.4142 1.4142 -1.4142 1.4142 36.269 377.61)"
       preserveAspectRatio="xMidYMid" />
    <pattern
       id="b"
       xlink:href="#c"
       patternTransform="matrix(.35355 .35355 -.35355 .35355 0 0)"
       preserveAspectRatio="xMidYMid" />
    <pattern
       id="c"
       width="2.5"
       height="1"
       fill="#b3d2e5"
       patternTransform="translate(0) scale(2)"
       patternUnits="userSpaceOnUse"
       preserveAspectRatio="xMidYMid">
      <rect
         y="-.5"
         width="1"
         height="2"
         id="rect1" />
    </pattern>
    <linearGradient
       id="j"
       x1="0.58611"
       x2="7.7051001"
       y1="-48.682999"
       y2="-48.682999"
       gradientTransform="translate(42.47)"
       gradientUnits="userSpaceOnUse">
      <stop
         stop-color="#7e5e11"
         offset="0"
         id="stop1" />
      <stop
         stop-color="#dfaf2b"
         offset=".3"
         id="stop2" />
      <stop
         stop-color="#fbc600"
         offset=".5"
         id="stop3" />
      <stop
         stop-color="#e1af2a"
         offset=".7"
         id="stop4" />
      <stop
         stop-color="#7e5e10"
         offset="1"
         id="stop5" />
    </linearGradient>
    <linearGradient
       id="i"
       x1="38.001999"
       x2="38.932999"
       y1="-46.189999"
       y2="-46.189999"
       gradientUnits="userSpaceOnUse">
      <stop
         stop-color="#75570f"
         offset="0"
         id="stop6-3" />
      <stop
         stop-color="#ac821a"
         offset="1"
         id="stop7-2" />
    </linearGradient>
    <linearGradient
       id="h"
       x1="37.832001"
       x2="40.377998"
       y1="-41.174"
       y2="-41.174"
       gradientUnits="userSpaceOnUse">
      <stop
         stop-color="#ca9921"
         offset="0"
         id="stop8-2" />
      <stop
         stop-color="#f3b81c"
         offset="1"
         id="stop9" />
    </linearGradient>
    <linearGradient
       id="g"
       x1="56.424"
       x2="57.352001"
       y1="-44.623001"
       y2="-44.623001"
       gradientUnits="userSpaceOnUse">
      <stop
         stop-color="#a37b19"
         offset="0"
         id="stop10" />
      <stop
         stop-color="#75570f"
         offset="1"
         id="stop11" />
    </linearGradient>
    <linearGradient
       id="f"
       x1="42.707001"
       x2="46.172001"
       y1="-40.721001"
       y2="-40.721001"
       gradientUnits="userSpaceOnUse">
      <stop
         stop-color="#fbc100"
         offset="0"
         id="stop12" />
      <stop
         stop-color="#ffcb31"
         offset="1"
         id="stop13" />
    </linearGradient>
    <linearGradient
       id="e"
       x1="51.320999"
       x2="53.855"
       y1="-42.301998"
       y2="-42.301998"
       gradientUnits="userSpaceOnUse">
      <stop
         stop-color="#f4b700"
         offset="0"
         id="stop14" />
      <stop
         stop-color="#c1911f"
         offset="1"
         id="stop15" />
    </linearGradient>
    <linearGradient
       id="d"
       x1="47.639999"
       x2="51.112999"
       y1="-39.195999"
       y2="-39.195999"
       gradientUnits="userSpaceOnUse">
      <stop
         stop-color="#ffcb31"
         offset="0"
         id="stop16" />
      <stop
         stop-color="#fbc100"
         offset="1"
         id="stop17" />
    </linearGradient>
    <linearGradient
       inkscape:collect="always"
       xlink:href="#j"
       id="linearGradient42"
       gradientUnits="userSpaceOnUse"
       gradientTransform="translate(42.47)"
       x1="0.58611"
       y1="-48.682999"
       x2="7.7051001"
       y2="-48.682999" />
    <linearGradient
       inkscape:collect="always"
       xlink:href="#i"
       id="linearGradient43"
       gradientUnits="userSpaceOnUse"
       x1="38.001999"
       y1="-46.189999"
       x2="38.932999"
       y2="-46.189999" />
    <linearGradient
       inkscape:collect="always"
       xlink:href="#h"
       id="linearGradient44"
       gradientUnits="userSpaceOnUse"
       x1="37.832001"
       y1="-41.174"
       x2="40.377998"
       y2="-41.174" />
    <linearGradient
       inkscape:collect="always"
       xlink:href="#g"
       id="linearGradient45"
       gradientUnits="userSpaceOnUse"
       x1="56.424"
       y1="-44.623001"
       x2="57.352001"
       y2="-44.623001" />
    <linearGradient
       inkscape:collect="always"
       xlink:href="#f"
       id="linearGradient46"
       gradientUnits="userSpaceOnUse"
       x1="42.707001"
       y1="-40.721001"
       x2="46.172001"
       y2="-40.721001" />
    <linearGradient
       inkscape:collect="always"
       xlink:href="#e"
       id="linearGradient47"
       gradientUnits="userSpaceOnUse"
       x1="51.320999"
       y1="-42.301998"
       x2="53.855"
       y2="-42.301998" />
    <linearGradient
       inkscape:collect="always"
       xlink:href="#d"
       id="linearGradient48"
       gradientUnits="userSpaceOnUse"
       x1="47.639999"
       y1="-39.195999"
       x2="51.112999"
       y2="-39.195999" />
  </defs>
  <g
     inkscape:label="Layer 1"
     inkscape:groupmode="layer"
     id="layer1">
    <circle
       style="fill:url(#linearGradient7);fill-opacity:1;stroke-width:0.1;stroke-linecap:round;stroke-linejoin:round"
       id="path1"
       cx="2.1316282e-14"
       cy="70.710678"
       r="50"
       transform="rotate(-45)" />
    <path
       d="m 40.026,432.62 c 2.2153,4.1066 8.1576,6.5029 14.168,5.7135 m 30.483,-15.606 c 0.65929,1.7143 1.0581,3.4748 1.1894,5.2513 l 8.3644,4.1634 c -0.44371,3.418 -1.6798,6.7576 -3.6571,9.88 l -10.128,0.60249 c -2.592,2.8844 -5.9953,5.3437 -9.9896,7.2184 l -0.81666,7.3067 c -4.3254,1.4317 -8.9534,2.3294 -13.691,2.6558 l -5.7874,-6.0257 c -4.7591,-0.17693 -9.4136,-1.0732 -13.662,-2.6306 l -9.1812,3.1432 c -3.8817,-1.9858 -7.2736,-4.4283 -10.034,-7.2244 l 4.3412,-6.628 c -2.1674,-3.0613 -3.4184,-6.4169 -3.6722,-9.8493 l -8.3644,-4.1634 c 0.44232,-3.418 1.6799,-6.7576 3.6573,-9.88 l 5.8967,-0.3492"
       fill="none"
       stroke-width="1.6"
       id="path48"
       style="display:inline;stroke:none;stroke-width:1.59923;stroke-dasharray:none"
       transform="matrix(0.58590537,0,0,0.58590537,19.585676,-188.83548)" />
    <g
       transform="matrix(0.58590536,0,0,0.58590536,19.585676,-188.83548)"
       id="Build123d"
       style="display:inline">
      <g
         stroke="#3776ab"
         id="Rest"
         style="display:inline">
        <g
           transform="matrix(3.9421,0,0,3.9421,35.568,566.34)"
           stroke-linecap="round"
           stroke-miterlimit="20"
           stroke-width="0.60882"
           id="Background"
           style="display:inline">
          <path
             d="m -8.538,-52.986 h 25.367 l 1e-6,24.353 -4.0588,4.0588 -21.309,-10e-7 z"
             fill="#ffffff"
             id="Letter"
             style="display:inline;fill:#000000;fill-opacity:1"
             inkscape:highlight-color="#3b80ee" />
          <path
             d="m 12.771,-24.574 v -4.0588 h 4.0588"
             fill="#eaf2f8"
             id="Corner"
             style="display:inline;fill:#000000;fill-opacity:1" />
        </g>
        <path
           d="m 40.026,432.62 c 2.2153,4.1066 8.1576,6.5029 14.168,5.7135 m 30.483,-15.606 c 0.65929,1.7143 1.0581,3.4748 1.1894,5.2513 l 8.3644,4.1634 c -0.44371,3.418 -1.6798,6.7576 -3.6571,9.88 l -10.128,0.60249 c -2.592,2.8844 -5.9953,5.3437 -9.9896,7.2184 l -0.81666,7.3067 c -4.3254,1.4317 -8.9534,2.3294 -13.691,2.6558 l -5.7874,-6.0257 c -4.7591,-0.17693 -9.4136,-1.0732 -13.662,-2.6306 l -9.1812,3.1432 c -3.8817,-1.9858 -7.2736,-4.4283 -10.034,-7.2244 l 4.3412,-6.628 c -2.1674,-3.0613 -3.4184,-6.4169 -3.6722,-9.8493 l -8.3644,-4.1634 c 0.44232,-3.418 1.6799,-6.7576 3.6573,-9.88 l 5.8967,-0.3492"
           fill="none"
           stroke-width="1.6"
           id="BottomGear"
           style="display:inline;fill:none;fill-opacity:1" />
        <path
           d="m 40.026,412.98 c 2.2153,4.1066 8.1576,6.5029 14.168,5.7135 15.853,-4.4828 -17.695,-14.197 -14.168,-5.7135 z M 9.589,406.7866 c 0.44232,-3.418 1.6799,-6.7576 3.6573,-9.88 l 4.0381,-0.24211 c 13.725,-0.79385 22.3,-26.279 32.342,-15.717 l 3.3435,3.4808 31.708,18.657 c 0.65929,1.7143 1.0581,3.4748 1.1894,5.2512 l 8.3644,4.1634 c -0.44371,3.418 -1.6798,6.7576 -3.6571,9.88 l -10.128,0.60248 c -2.592,2.8844 -5.9953,5.3437 -9.9896,7.2184 l -0.81666,7.3067 c -4.3254,1.4317 -8.9534,2.3294 -13.691,2.6558 l -5.7874,-6.0257 c -4.7591,-0.17693 -9.4136,-1.0732 -13.662,-2.6311 l -9.1812,3.1433 c -3.8817,-1.9858 -7.2736,-4.4283 -10.034,-7.2245 l 4.3412,-6.628 c -2.1674,-3.0613 -3.4184,-6.4169 -3.6722,-9.8493 z"
           fill="url(#a)"
           stroke-width="1.6"
           id="MiddleGear"
           style="display:inline" />
      </g>
      <g
         transform="matrix(3.9421,0,0,3.9421,-131.79,566.4)"
         stroke="#000000"
         id="Top"
         style="display:inline">
        <path
           d="m 48.901,-46.384 c -2.0387,-1.4678 -5.5201,-0.42635 -5.5201,1.6513 0,3.111 6.4696,3.111 6.4696,0 0,-0.61955 -0.34161,-1.2137 -0.94951,-1.6513 z m -10.899,1.9826 -2.1218,-1.0562 c 0.11253,-0.86701 0.42613,-1.7142 0.9277,-2.5063 l 2.5693,-0.15279 c 0.65748,-0.7317 1.5208,-1.3556 2.5341,-1.8311 l 0.2072,-1.8535 c 1.0972,-0.36321 2.2713,-0.59093 3.4731,-0.67365 l 1.4681,1.5286 c 1.2073,0.04485 2.388,0.27223 3.4656,0.66739 l 2.329,-0.79733 c 0.98471,0.5038 1.8451,1.1233 2.5454,1.8327 l -1.1012,1.6814 c 0.54978,0.77655 0.86714,1.6278 0.93149,2.4985 l 2.1218,1.0562 c -0.11253,0.86701 -0.42613,1.7142 -0.9277,2.5063 l -2.5693,0.15279 c -0.65748,0.7317 -1.5208,1.3556 -2.5341,1.8311 l -0.2072,1.8535 c -1.0972,0.36321 -2.2713,0.59093 -3.4731,0.67366 l -1.4681,-1.5286 c -1.2073,-0.04485 -2.388,-0.27223 -3.4656,-0.66738 l -2.329,0.79733 c -0.98471,-0.5038 -1.8451,-1.1233 -2.5454,-1.8327 l 1.1012,-1.6814 c -0.54978,-0.77655 -0.86714,-1.6278 -0.93149,-2.4985 z"
           fill="none"
           stroke-opacity="0.3"
           stroke-width="2.0294"
           id="TopGearShadow"
           style="display:none" />
        <g
           stroke-linejoin="round"
           stroke-width="0.10147"
           id="TopGear"
           style="display:inline">
          <path
             d="m 46.718,-50.808 c -1.6909,-0.02982 -3.3365,0.90886 -3.3365,2.3373 0,0.89471 0.53558,1.5315 1.298,1.9116 v -0.04284 a 3.2348,2.3333 0 0 1 3.8735,0 v 0.04284 c 0.76243,-0.38008 1.298,-1.0169 1.298,-1.9116 0,-0.61954 -0.34152,-1.2137 -0.94942,-1.6514 -0.63708,-0.4587 -1.4151,-0.67232 -2.1837,-0.68587 z"
             fill="url(#j)"
             id="path22"
             style="display:inline;fill:url(#linearGradient42)" />
          <path
             d="m 35.88,-49.195 v 3.7377 l 2.1218,1.0562 v -3.7377"
             fill="#f2b81c"
             id="path23" />
          <path
             d="m 55.215,-48.962 0.18448,-0.28167 v -3.7377 l -1.1012,1.6814"
             fill="#ad821a"
             id="path24" />
          <path
             d="m 38.002,-48.139 10e-7,3.7377 a 8.6262,6.222 0 0 0 0.01475,0.16052 l 0.91674,-1.3997"
             fill="url(#i)"
             id="path25"
             style="fill:url(#linearGradient43)" />
          <path
             d="m 37.832,-43.959 v 3.7377 c 0.70023,0.70936 1.5606,1.3289 2.5454,1.8327 l 10e-7,-3.7377"
             fill="url(#h)"
             id="path26"
             style="fill:url(#linearGradient44)" />
          <path
             d="m 57.352,-47.745 v 3.7377 c -0.11253,0.867 -0.42613,1.7142 -0.9277,2.5063 v -3.7377"
             fill="url(#g)"
             id="path27"
             style="fill:url(#linearGradient45)" />
          <path
             d="m 42.707,-42.924 v 3.7377 l -2.329,0.79733 v -3.7377"
             fill="#fbc100"
             id="path28" />
          <path
             d="m 56.424,-45.239 v 3.7377 l -2.5693,0.15279 v -3.7377"
             fill="#ffcb31"
             id="path29" />
          <path
             d="m 46.172,-42.257 v 3.7377 c -1.2073,-0.04485 -2.388,-0.27223 -3.4656,-0.66738 v -3.7377"
             fill="url(#f)"
             id="path30"
             style="fill:url(#linearGradient46)" />
          <path
             d="m 53.855,-45.086 v 3.7377 c -0.65748,0.7317 -1.5208,1.3556 -2.5341,1.8311 v -3.7377"
             fill="url(#e)"
             id="path31"
             style="fill:url(#linearGradient47)" />
          <path
             d="m 47.64,-40.728 v 3.7377 l -1.4681,-1.5286 v -3.7377"
             fill="#c0911f"
             id="path32" />
          <path
             d="m 51.321,-43.255 v 3.7377 l -0.2072,1.8535 v -3.7377"
             fill="#6c500d"
             id="path33" />
          <path
             d="m 51.113,-41.402 v 3.7377 c -1.0972,0.36321 -2.2713,0.59092 -3.4731,0.67366 v -3.7377"
             fill="url(#d)"
             id="path34"
             style="display:inline;fill:url(#linearGradient48)" />
          <path
             d="m 48.901,-50.122 c -2.0387,-1.4678 -5.5201,-0.42635 -5.5201,1.6513 0,3.111 6.4696,3.111 6.4696,0 0,-0.61955 -0.34161,-1.2137 -0.94951,-1.6513 z m -10.899,1.9826 -2.1218,-1.0562 c 0.11253,-0.86701 0.42613,-1.7142 0.9277,-2.5063 l 2.5693,-0.15279 c 0.65748,-0.7317 1.5208,-1.3556 2.5341,-1.8311 l 0.2072,-1.8535 c 1.0972,-0.36321 2.2713,-0.59093 3.4731,-0.67365 l 1.4681,1.5286 c 1.2073,0.04485 2.388,0.27223 3.4656,0.66739 l 2.329,-0.79733 c 0.98471,0.5038 1.8451,1.1233 2.5454,1.8327 l -1.1012,1.6814 c 0.54978,0.77655 0.86714,1.6278 0.93149,2.4985 l 2.1218,1.0562 c -0.11253,0.86701 -0.42613,1.7142 -0.9277,2.5063 l -2.5693,0.15279 c -0.65748,0.7317 -1.5208,1.3556 -2.5341,1.8311 l -0.2072,1.8535 c -1.0972,0.36321 -2.2713,0.59093 -3.4731,0.67366 l -1.4681,-1.5286 c -1.2073,-0.04485 -2.388,-0.27223 -3.4656,-0.66738 l -2.329,0.79733 c -0.98471,-0.5038 -1.8451,-1.1233 -2.5454,-1.8327 l 1.1012,-1.6814 c -0.54978,-0.77655 -0.86714,-1.6278 -0.93149,-2.4985 z"
             fill="#f3b800"
             image-rendering="auto"
             id="path35"
             style="display:inline" />
        </g>
      </g>
    </g>
    <g
       transform="matrix(0.26458333,0,0,0.26458333,118.12738,-67.789417)"
       id="g42"
       style="display:none">
      <g
         stroke="#3776ab"
         id="g11"
         style="display:inline">
        <g
           transform="matrix(3.9421,0,0,3.9421,35.568,566.34)"
           stroke-linecap="round"
           stroke-miterlimit="20"
           stroke-width="0.60882"
           id="g9"
           style="display:inline">
          <path
             d="m -8.538,-52.986 h 25.367 l 1e-6,24.353 -4.0588,4.0588 -21.309,-10e-7 z"
             fill="#ffffff"
             id="path8"
             style="display:inline" />
          <path
             d="m 12.771,-24.574 v -4.0588 h 4.0588"
             fill="#eaf2f8"
             id="path9"
             style="display:inline" />
        </g>
        <path
           d="m 40.026,432.62 c 2.2153,4.1066 8.1576,6.5029 14.168,5.7135 m 30.483,-15.606 c 0.65929,1.7143 1.0581,3.4748 1.1894,5.2513 l 8.3644,4.1634 c -0.44371,3.418 -1.6798,6.7576 -3.6571,9.88 l -10.128,0.60249 c -2.592,2.8844 -5.9953,5.3437 -9.9896,7.2184 l -0.81666,7.3067 c -4.3254,1.4317 -8.9534,2.3294 -13.691,2.6558 l -5.7874,-6.0257 c -4.7591,-0.17693 -9.4136,-1.0732 -13.662,-2.6306 l -9.1812,3.1432 c -3.8817,-1.9858 -7.2736,-4.4283 -10.034,-7.2244 l 4.3412,-6.628 c -2.1674,-3.0613 -3.4184,-6.4169 -3.6722,-9.8493 l -8.3644,-4.1634 c 0.44232,-3.418 1.6799,-6.7576 3.6573,-9.88 l 5.8967,-0.3492"
           fill="none"
           stroke-width="1.6"
           id="path10"
           style="display:inline" />
        <path
           d="m 40.026,412.98 c 2.2153,4.1066 8.1576,6.5029 14.168,5.7135 15.853,-4.4828 -17.695,-14.197 -14.168,-5.7135 z M 9.589,406.7866 c 0.44232,-3.418 1.6799,-6.7576 3.6573,-9.88 l 4.0381,-0.24211 c 13.725,-0.79385 22.3,-26.279 32.342,-15.717 l 3.3435,3.4808 31.708,18.657 c 0.65929,1.7143 1.0581,3.4748 1.1894,5.2512 l 8.3644,4.1634 c -0.44371,3.418 -1.6798,6.7576 -3.6571,9.88 l -10.128,0.60248 c -2.592,2.8844 -5.9953,5.3437 -9.9896,7.2184 l -0.81666,7.3067 c -4.3254,1.4317 -8.9534,2.3294 -13.691,2.6558 l -5.7874,-6.0257 c -4.7591,-0.17693 -9.4136,-1.0732 -13.662,-2.6311 l -9.1812,3.1433 c -3.8817,-1.9858 -7.2736,-4.4283 -10.034,-7.2245 l 4.3412,-6.628 c -2.1674,-3.0613 -3.4184,-6.4169 -3.6722,-9.8493 z"
           fill="url(#a)"
           stroke-width="1.6"
           id="path11"
           style="display:inline" />
      </g>
      <g
         transform="matrix(3.9421,0,0,3.9421,-131.79,566.4)"
         stroke="#000000"
         id="g41"
         style="display:inline">
        <path
           d="m 48.901,-46.384 c -2.0387,-1.4678 -5.5201,-0.42635 -5.5201,1.6513 0,3.111 6.4696,3.111 6.4696,0 0,-0.61955 -0.34161,-1.2137 -0.94951,-1.6513 z m -10.899,1.9826 -2.1218,-1.0562 c 0.11253,-0.86701 0.42613,-1.7142 0.9277,-2.5063 l 2.5693,-0.15279 c 0.65748,-0.7317 1.5208,-1.3556 2.5341,-1.8311 l 0.2072,-1.8535 c 1.0972,-0.36321 2.2713,-0.59093 3.4731,-0.67365 l 1.4681,1.5286 c 1.2073,0.04485 2.388,0.27223 3.4656,0.66739 l 2.329,-0.79733 c 0.98471,0.5038 1.8451,1.1233 2.5454,1.8327 l -1.1012,1.6814 c 0.54978,0.77655 0.86714,1.6278 0.93149,2.4985 l 2.1218,1.0562 c -0.11253,0.86701 -0.42613,1.7142 -0.9277,2.5063 l -2.5693,0.15279 c -0.65748,0.7317 -1.5208,1.3556 -2.5341,1.8311 l -0.2072,1.8535 c -1.0972,0.36321 -2.2713,0.59093 -3.4731,0.67366 l -1.4681,-1.5286 c -1.2073,-0.04485 -2.388,-0.27223 -3.4656,-0.66738 l -2.329,0.79733 c -0.98471,-0.5038 -1.8451,-1.1233 -2.5454,-1.8327 l 1.1012,-1.6814 c -0.54978,-0.77655 -0.86714,-1.6278 -0.93149,-2.4985 z"
           fill="none"
           stroke-opacity="0.3"
           stroke-width="2.0294"
           id="path12"
           style="display:none" />
        <g
           stroke-linejoin="round"
           stroke-width="0.10147"
           id="g40"
           style="display:inline">
          <path
             d="m 46.718,-50.808 c -1.6909,-0.02982 -3.3365,0.90886 -3.3365,2.3373 0,0.89471 0.53558,1.5315 1.298,1.9116 v -0.04284 a 3.2348,2.3333 0 0 1 3.8735,0 v 0.04284 c 0.76243,-0.38008 1.298,-1.0169 1.298,-1.9116 0,-0.61954 -0.34152,-1.2137 -0.94942,-1.6514 -0.63708,-0.4587 -1.4151,-0.67232 -2.1837,-0.68587 z"
             fill="url(#j)"
             id="path13"
             style="display:inline;fill:url(#j)" />
          <path
             d="m 35.88,-49.195 v 3.7377 l 2.1218,1.0562 v -3.7377"
             fill="#f2b81c"
             id="path14" />
          <path
             d="m 55.215,-48.962 0.18448,-0.28167 v -3.7377 l -1.1012,1.6814"
             fill="#ad821a"
             id="path15" />
          <path
             d="m 38.002,-48.139 10e-7,3.7377 a 8.6262,6.222 0 0 0 0.01475,0.16052 l 0.91674,-1.3997"
             fill="url(#i)"
             id="path16"
             style="fill:url(#i)" />
          <path
             d="m 37.832,-43.959 v 3.7377 c 0.70023,0.70936 1.5606,1.3289 2.5454,1.8327 l 10e-7,-3.7377"
             fill="url(#h)"
             id="path17"
             style="fill:url(#h)" />
          <path
             d="m 57.352,-47.745 v 3.7377 c -0.11253,0.867 -0.42613,1.7142 -0.9277,2.5063 v -3.7377"
             fill="url(#g)"
             id="path18"
             style="fill:url(#g)" />
          <path
             d="m 42.707,-42.924 v 3.7377 l -2.329,0.79733 v -3.7377"
             fill="#fbc100"
             id="path19" />
          <path
             d="m 56.424,-45.239 v 3.7377 l -2.5693,0.15279 v -3.7377"
             fill="#ffcb31"
             id="path20" />
          <path
             d="m 46.172,-42.257 v 3.7377 c -1.2073,-0.04485 -2.388,-0.27223 -3.4656,-0.66738 v -3.7377"
             fill="url(#f)"
             id="path21"
             style="fill:url(#f)" />
          <path
             d="m 53.855,-45.086 v 3.7377 c -0.65748,0.7317 -1.5208,1.3556 -2.5341,1.8311 v -3.7377"
             fill="url(#e)"
             id="path36"
             style="fill:url(#e)" />
          <path
             d="m 47.64,-40.728 v 3.7377 l -1.4681,-1.5286 v -3.7377"
             fill="#c0911f"
             id="path37" />
          <path
             d="m 51.321,-43.255 v 3.7377 l -0.2072,1.8535 v -3.7377"
             fill="#6c500d"
             id="path38" />
          <path
             d="m 51.113,-41.402 v 3.7377 c -1.0972,0.36321 -2.2713,0.59092 -3.4731,0.67366 v -3.7377"
             fill="url(#d)"
             id="path39"
             style="display:inline;fill:url(#d)" />
          <path
             d="m 48.901,-50.122 c -2.0387,-1.4678 -5.5201,-0.42635 -5.5201,1.6513 0,3.111 6.4696,3.111 6.4696,0 0,-0.61955 -0.34161,-1.2137 -0.94951,-1.6513 z m -10.899,1.9826 -2.1218,-1.0562 c 0.11253,-0.86701 0.42613,-1.7142 0.9277,-2.5063 l 2.5693,-0.15279 c 0.65748,-0.7317 1.5208,-1.3556 2.5341,-1.8311 l 0.2072,-1.8535 c 1.0972,-0.36321 2.2713,-0.59093 3.4731,-0.67365 l 1.4681,1.5286 c 1.2073,0.04485 2.388,0.27223 3.4656,0.66739 l 2.329,-0.79733 c 0.98471,0.5038 1.8451,1.1233 2.5454,1.8327 l -1.1012,1.6814 c 0.54978,0.77655 0.86714,1.6278 0.93149,2.4985 l 2.1218,1.0562 c -0.11253,0.86701 -0.42613,1.7142 -0.9277,2.5063 l -2.5693,0.15279 c -0.65748,0.7317 -1.5208,1.3556 -2.5341,1.8311 l -0.2072,1.8535 c -1.0972,0.36321 -2.2713,0.59093 -3.4731,0.67366 l -1.4681,-1.5286 c -1.2073,-0.04485 -2.388,-0.27223 -3.4656,-0.66738 l -2.329,0.79733 c -0.98471,-0.5038 -1.8451,-1.1233 -2.5454,-1.8327 l 1.1012,-1.6814 c -0.54978,-0.77655 -0.86714,-1.6278 -0.93149,-2.4985 z"
             fill="#f3b800"
             image-rendering="auto"
             id="path40"
             style="display:inline" />
        </g>
      </g>
    </g>
  </g>
</svg>
